<svg xmlns="http://www.w3.org/2000/svg" width="192" height="192" viewBox="0 0 192 192">
  <rect width="192" height="192" rx="42" fill="#1A1D21"/>
  <path d="M96 20C52.5 20 18 52.7 18 94.8c0 54.8 61.1 91.8 74.3 99.4a7.3 7.3 0 0 0 7.3 0c13.3-7.6 75.4-44.6 75.4-99.4C175 52.7 139.8 20 96 20Z" fill="#FFC400" transform="scale(.82) translate(21 4)"/>
  <path d="M96 38c33.8 0 60 24.6 60 56.8 0 32.4-30.6 59.5-60 78.4-28.9-18.9-59-46-59-78.4C37 62.6 62.7 38 96 38Z" fill="#1A1D21" transform="scale(.82) translate(21 4)"/>
  <path d="M31 68h42M22 87h43M36 106h35" stroke="#FFC400" stroke-width="9" stroke-linecap="round"/>
  <circle cx="83" cy="116" r="16" fill="none" stroke="#FFFFFF" stroke-width="8"/>
  <circle cx="132" cy="116" r="16" fill="none" stroke="#FFFFFF" stroke-width="8"/>
  <path d="M83 116 98 88h22l12 28M98 88 88 74h19l13 14M98 88l19 28H83M113 70a11 11 0 1 0 0-22 11 11 0 0 0 0 22Z" fill="none" stroke="#FFFFFF" stroke-width="8" stroke-linecap="round" stroke-linejoin="round"/>
  <path d="M126 82h19" stroke="#FFC400" stroke-width="8" stroke-linecap="round"/>
</svg>
